<?xml version="1.0" encoding="UTF-8"?>
<svg xmlns="http://www.w3.org/2000/svg" viewBox="0 0 1095 1095" width="1095" height="1095">
  <rect x="33.342" y="31.833" width="1053.978" height="1048.137" rx="100" ry="100" transform="matrix(1.01331 0 0 0.97779 -20.28878 -2.26126)" fill="#FFFFFF" stroke="none" stroke-width="2"/>
  <path d="M526.92 417C525.74 419.21 525.74 421.8 526.92 424C526.92 432.67 526.93 441.33 526.93 450C525.69 452.46 525.69 456.53 526.93 459C526.93 459.67 526.92 460.33 526.92 461C525.79 463.06 525.79 464.95 526.93 467C527.21 467.98 527.14 468.77 527.97 469.49C530.31 471.51 541 474.51 544.52 475.94C559.45 482.01 580.91 486.21 590.96 499.55C598.26 509.23 597.82 520.4 596.46 531.83C595.21 542.38 594.2 552.96 592.86 563.5C592.11 569.42 590.73 575.5 591.5 581.4C606.32 567.12 620.6 552.21 635.16 537.65C642.09 530.72 649.61 522.72 660.39 523.39C672.04 524.11 678.5 533.06 685.26 541.27C699.54 558.65 713.74 576.23 727.48 594.03C783.26 666.31 841.82 736.48 898.09 808.39C924.26 841.84 950.79 875.01 977.18 908.29C981.61 913.87 986.1 919.41 990.47 925.04C992.18 927.25 994.41 929.27 995.7 931.77C997.85 935.9 997.88 941.72 995.05 945.55C991.41 950.47 984.91 950.04 979.5 950.04C967.5 950.04 955.5 950.05 943.5 950.05C892.5 950.03 841.5 950.05 790.5 950.05C613.83 950.03 437.17 950.3 260.5 950.04C215.5 949.97 170.5 949.98 125.5 950.04C114.5 950.06 103.5 950.05 92.5 950.05C86.46 950.05 79.84 950.74 74.84 946.63C69.3 942.09 68.45 934.24 71.56 928.03C74.88 921.4 89.08 909.31 94.89 903.41C130.82 867 167.22 831.07 203.42 794.93C234.11 764.3 264.81 733.64 295.92 703.44C305.06 694.57 314.11 685.6 323.2 676.69C325.2 674.72 334.04 667.11 334.76 665.21C335.82 662.44 333.16 657.52 332.7 654.53C331.74 648.37 332.4 641.83 334.48 635.96C337.08 628.63 341.76 621.78 345.48 614.98C349.96 606.78 354.3 598.5 358.87 590.34C373.95 563.4 388.92 536.38 403.89 509.38C408.46 501.13 416.08 490.79 418.39 481.79C419.62 477.01 418.9 471.41 418.91 466.5C418.92 457.17 418.86 447.83 418.89 438.5C418.91 432.17 418.93 425.83 418.94 419.5C418.94 418.05 419.6 414.22 418.24 413.29C417.08 412.5 413.03 414.95 411.91 415.44C407.69 417.3 393.99 422.08 391.6 425.11C389.44 427.84 388.21 432.08 386.73 435.24C381.47 446.51 376.06 463.33 368.02 472.51C351.23 491.66 318.58 487.42 310.19 462.35C305.36 447.9 314.53 432.73 320.5 420.01C327.72 404.65 334.26 383.1 348.04 372.53C355.06 367.14 364.2 364.26 372.23 360.69C385.53 354.75 398.72 348.53 411.97 342.48C416.1 340.59 420.27 338.61 424.53 337.03C426.56 336.28 430.54 336.01 432.15 334.63C433 333.9 428.62 326.11 427.96 324.51C425.2 317.83 423.92 310.71 423.89 303.5C423.77 273.92 446.9 250 476 247.24C479 247.24 482 247.24 485 247.24C508.98 249.85 530.22 267.52 534.69 291.65C536.67 302.35 535.87 313.3 531.97 323.48C530.8 326.52 529.28 329.37 527.64 332.16C527.28 332.77 525.8 334.55 526.26 335.3C527.22 336.84 534.61 335.38 536.33 334.8C543.45 332.42 550.21 326.9 556.62 323.06C567.86 316.34 579.19 309.69 590.29 302.73C594.34 300.19 598.31 297.84 602.91 296.44C603.98 296.11 607.15 295.85 607.49 294.48C607.85 293.04 605.91 289.53 605.43 288.12C603.68 282.88 601.97 277.62 600.21 272.38C593.38 251.96 587.13 231.16 579.49 211.02C576.47 203.05 568.74 186.83 573.68 179.21C576.98 174.14 583.19 170.1 587.88 166.39C603.95 153.7 622.91 146.17 643.5 145.79C666.77 145.37 684.55 151.16 707.32 141.79C720.07 136.55 728.6 125.09 741 119.5C747.56 116.54 755.86 116.77 760.01 123.49C763.74 129.52 767.61 144.13 770.11 151.45C775.69 167.74 781.55 183.99 787.39 200.19C790.14 207.81 796.77 221.34 794.53 229.12C792.67 235.57 784.83 239.57 779.69 243.17C764.16 254.04 746.66 263.79 727.5 265.95C719.9 266.81 712.25 267.17 704.61 266.58C685 265.06 666.46 261.19 648.1 270.59C643.79 272.8 630.45 280.85 629.41 285.72C628.89 288.15 631.07 292.26 631.86 294.56C633.01 297.93 633.84 301.85 635.54 304.98C638.35 310.15 642.44 313.54 643.74 319.63C644.62 323.73 643.81 327.88 644.57 331.89C645.33 335.94 647.3 339.91 648.61 343.81C651.2 351.5 653.92 359.14 656.66 366.78C664.61 388.89 672.82 410.95 680.36 433.2C682.96 440.86 685.74 448.47 688.44 456.09C689.98 460.44 692.13 464.98 692.98 469.52C693.97 474.8 692.48 480.29 687.67 483.18C671.71 492.79 666.56 469.31 663.3 459.28C655.03 433.78 645.73 408.61 637.44 383.11C635.41 376.87 633.14 370.7 631.03 364.48C630.51 362.96 629.73 358.23 628.2 357.5C627.22 357.03 625.42 358.68 624.66 359.16C621.37 361.23 618.02 363.19 614.73 365.24C601.18 373.68 587.67 382.22 574.06 390.56C564.61 396.36 555.46 400.15 544.4 401.64C540.44 402.17 536.47 402.72 532.5 403.16C531.35 403.29 528.62 403.11 527.75 404.1C526.34 405.7 527.05 414.44 526.92 417ZM742.78 144.28C740.66 144.71 731.05 153 728.27 154.76C718.07 161.24 706.37 165.8 694.43 167.71C666.15 172.24 642.43 161.09 614.9 174.42C609.24 177.15 604.09 180.73 599.2 184.67C597.72 185.87 595.04 187.5 594.75 189.52C594.32 192.6 596.99 197.6 598.05 200.48C601.21 209.09 603.95 217.83 607.14 226.44C610.3 234.99 613.47 243.71 616.21 252.4C616.72 254.01 618.83 261.78 619.95 262.45C620.95 263.05 627.21 257.93 628.57 257.04C637.18 251.4 646.53 246.53 656.67 244.32C676.46 240.01 693.86 245.21 713.5 245.24C725.83 245.26 738.11 242.11 749.11 236.61C754.96 233.68 760.57 230.24 765.82 226.35C767.39 225.18 770.93 223.18 771.45 221.17C771.95 219.22 767.15 207.9 766.26 205.32C761.17 190.5 755.94 175.69 750.51 161C748.88 156.59 747.25 152.18 745.7 147.74C745.12 146.09 744.98 143.84 742.78 144.28ZM476.44 268.44C439.11 272.16 433.4 324.88 468.9 336.55C473.21 337.97 477.73 338.91 482.29 338.57C520.41 335.72 527.24 281.59 490.55 269.86C485.99 268.4 481.2 267.96 476.44 268.44ZM439.33 485C436.83 497.19 422.66 518.82 416.06 530.45C400.17 558.43 385.05 586.86 369.33 614.94C365.77 621.3 362.46 627.82 358.82 634.13C356.75 637.72 354.08 641.34 353.34 645.5C352.31 651.36 354.55 657.79 360.11 660.44C373.45 666.79 379.57 653.97 385.21 644.86C388.42 639.68 391.51 634.42 394.63 629.18C412.51 599.12 430 568.73 448.23 538.87C452.56 531.78 456.49 524.51 460.89 517.5C463.09 513.99 465.7 509.26 470 507.94C476.62 505.92 483.26 510.31 489.33 512.24C503.51 516.73 517.49 522.13 531.72 526.7C537.72 528.63 546.13 530.49 547.58 537.79C548.78 543.78 546.36 553.68 545.52 559.99C543.55 574.78 541.74 589.61 540.18 604.47C539.89 607.16 539.43 609.83 539.83 612.54C540.64 618.18 546.57 623.87 552.53 621.32C554.6 620.43 556.35 617.96 557.98 616.43C560.57 614.01 564.71 610.75 566.19 607.5C568.86 601.6 568.21 593.33 568.85 587C570.51 570.64 573.3 554.37 574.86 538C575.68 529.33 580.33 516.83 572.45 510.1C568.82 507 563.35 505.85 558.99 504.13C547.35 499.55 535.58 495.19 523.99 490.5C517.44 487.85 511.28 486.39 506.98 480.46C506.03 472.2 506.53 463.82 506.52 455.5C506.49 440.83 506.46 426.17 506.49 411.5C506.51 403.8 504.07 391.89 511.17 386.65C516.73 382.56 535.02 381.75 542.5 380.8C556.6 378.99 566.83 370.44 578.64 363.11C591.71 355 605.78 347.73 618.28 338.79C624.89 334.05 626.01 323.43 619.26 318.25C610.88 311.81 602 319.99 594.83 324.35C584.26 330.78 573.49 336.91 563.04 343.54C556.03 348 548.51 353.88 540.24 355.62C531.55 357.44 522.34 357.54 513.5 358.16C501.38 359.02 488.75 360.45 476.6 359.59C470.35 359.15 465.15 356.76 459.18 355.47C453.06 354.14 445.74 354.04 439.5 354.64C428.1 355.72 413.01 364.92 402.3 369.79C393.6 373.74 384.95 377.8 376.23 381.68C371.25 383.9 365.01 385.82 360.66 389.11C355.78 392.81 353.3 398.91 350.73 404.26C346.29 413.54 342.16 422.97 337.73 432.25C335.39 437.15 330.57 445.28 330.05 450.5C328.82 462.69 344.1 467.72 352.02 459.51C355.06 456.35 356.26 451.54 358.15 447.65C362.42 438.85 366.31 429.87 370.52 421.03C372.28 417.33 373.63 412.93 376.34 409.81C381.16 404.25 400.58 398.02 408.16 394.62C413.84 392.07 425.31 385.43 431.31 386.34C441.98 387.94 439.53 401.96 439.55 409.5C439.59 434.61 440.47 459.92 439.33 485ZM493 482.07C493.38 481.99 493.77 481.91 494.15 481.83C497.44 482.05 500.72 482.28 504 482.5C500.64 483.17 495.89 483.77 493 482.07ZM463 485.5C461.33 485.5 459.67 485.5 458 485.5C459.67 485.5 461.33 485.5 463 485.5ZM477.74 531.37C475.73 532.05 470.27 543.01 468.86 545.34C460.68 558.9 452.73 572.59 444.71 586.25C430.69 610.13 416.46 633.93 402.06 657.59C398.84 662.89 395.68 668.32 391.18 672.67C389.83 673.98 385.24 676.61 385.18 678.49C385.13 679.98 391.73 686.05 393.07 687.42C401.11 695.72 409.31 703.86 417.41 712.1C423.68 718.49 429.84 725.01 436.04 731.47C437.63 733.12 441.15 738.05 443.54 738.21C445.64 738.36 451.69 730.67 453.37 728.86C462.36 719.18 471.08 709.2 479.76 699.26C492.96 684.15 506.56 669.39 520.01 654.51C523.32 650.84 526.54 647.04 530 643.51C530.93 642.57 533.5 640.77 533.58 639.35C533.62 638.7 527.47 633.25 526.49 632.01C522.23 626.67 519.5 620.35 518.96 613.5C518.55 608.45 519.41 603.5 519.94 598.5C521.15 587.14 522.76 575.84 524 564.5C524.35 561.29 526.76 550.17 525.61 547.78C524.79 546.07 520.28 545.45 518.6 544.85C511.95 542.43 505.2 540.3 498.54 537.91C493.57 536.13 488.57 534.52 483.56 532.87C482.04 532.36 479.34 530.83 477.74 531.37ZM505.05 704.9C494.36 716.9 483.66 728.9 472.97 740.9C472.66 741.49 472.36 742.09 472.05 742.68C466.64 746.73 462.09 752.84 457.51 758.02C448.15 768.62 438.81 779.25 429.42 789.83C402.29 820.44 375.41 851.28 348.96 882.48C339.65 893.47 329.73 904.04 320.77 915.3C318.99 917.54 311.77 924.14 313.74 926.8C315.43 929.06 321.09 927.72 323.5 927.68C332.83 927.52 342.17 927.71 351.5 927.62C388.97 927.26 426.53 927.22 464 927.69C478.63 928.95 493.8 927.9 508.5 927.9C535.83 927.89 563.17 927.95 590.5 927.92C672.83 927.83 755.17 927.83 837.5 927.93C869.5 927.97 901.5 927.88 933.5 927.91C941.17 927.92 948.83 927.88 956.5 927.93C958.08 927.93 963.06 928.76 964.04 927.28C964.9 925.97 960.86 922.3 960.1 921.37C955.46 915.64 951.13 909.23 946.04 904.01C903.36 850.33 860.69 796.66 818.01 742.98C807.06 729.17 796.11 715.36 785.16 701.55C783.11 697.86 779.87 694.62 777.22 691.27C769.86 681.98 762.37 672.77 755.04 663.44C733.93 636.6 712.56 609.92 691.1 583.36C683.38 573.8 676.05 563.8 667.99 554.52C665.87 552.07 663.02 546.22 659.49 546.04C655.47 545.84 651.59 551.96 648.98 554.48C639.48 563.64 630.57 573.41 621.11 582.6C595.8 607.2 571.37 632.91 546.88 658.37C537.37 668.25 528.32 678.48 519.16 688.68C514.48 693.9 508.81 699 505.05 704.9ZM284.01 746.5C288.05 746.91 292.65 744.64 296.61 743.16C304.05 740.37 321.34 733 328.5 732.92C334.01 732.86 337.39 735.91 341.6 738.95C347.99 743.55 354.45 748.09 360.91 752.59C363.42 754.33 366.8 757.9 369.82 758.56C372.09 759.05 374.62 757.02 376.52 756.02C381.99 753.14 387.52 750.36 393 747.5C397.38 745.22 401.73 742.87 406.1 740.58C407.32 739.94 409.95 739.14 409.97 737.55C409.99 736.38 404.84 731.77 403.82 730.69C397.67 724.17 391.43 717.75 385.2 711.31C377.99 703.86 370.71 696.43 363.6 688.89C360.63 685.74 357.43 680.92 352.52 681.15C349.79 681.28 347.74 683.67 345.9 685.4C341.6 689.44 337.55 693.71 333.36 697.86C316.95 714.11 300.34 730.16 284.01 746.5ZM158 872.64C151.67 877.71 145.98 884 140.32 889.83C132.94 897.43 125.28 904.76 117.85 912.32C115.53 914.67 105.25 923.45 106.2 926.31C106.78 928.1 109.05 927.84 110.5 927.9C115.16 928.09 119.84 927.95 124.5 927.93C144.17 927.86 163.83 928.05 183.5 927.95C204.83 927.84 226.17 927.91 247.5 927.96C254.84 927.97 271.87 929.17 278.11 927.56C281.71 926.63 283.77 923.2 286.03 920.54C291.1 914.61 296.26 908.75 301.36 902.85C315.43 886.6 329.42 870.27 343.53 854.07C348.04 848.9 352.45 843.62 357 838.5C360.44 834.62 364.6 830.73 366.98 826.12C373.84 820.69 379.47 812.36 385.15 805.69C393.88 795.43 402.92 785.43 411.73 775.24C415.13 771.31 418.61 767.43 422.03 763.51C423.25 762.12 425.52 760.31 424.14 758.34C422.58 756.11 412.74 761.8 410.43 762.93C401.33 767.4 392.24 772.04 383.23 776.7C378.6 779.09 373.95 782.64 368.5 782.18C364.06 781.81 360.86 778.5 357.37 776.08C350.11 771.04 342.99 765.79 335.71 760.78C333.16 759.03 329.67 755.3 326.48 755.1C322.86 754.88 317.85 757.73 314.42 758.85C305.38 761.81 296.36 764.82 287.3 767.72C280.01 770.07 272.75 772.55 265.44 774.83C260.46 776.39 254.22 777.53 249.72 780.21C245 783.03 234.58 795.01 230.12 799.54C218.21 811.65 206.19 823.67 194.17 835.67C187.34 842.49 180.7 849.56 173.75 856.25C168.59 861.23 161.69 866.46 158 872.64Z" fill="#020204" fill-rule="evenodd" stroke="#020204" stroke-width="0.25" stroke-linejoin="round"/>
  <path d="M818.01 742.98C860.69 796.66 903.36 850.33 946.04 904.01C945.74 905.49 945.48 907.53 943.93 908.33C940.94 909.86 930.89 903.09 927.97 901.52C910.19 892 892.55 882.22 874.75 872.72C866.74 868.45 858.99 863.67 850.89 859.57C847.26 857.73 843.71 855.22 839.5 855.23C828.24 855.27 816.08 868.13 804.77 864.67C801.03 863.53 797.45 861.14 793.93 859.47C784.69 855.09 775.46 850.72 766.27 846.24C744.29 835.52 722.11 825.21 700.21 814.32C691.94 810.2 683.56 806.23 675.16 802.37C671.17 800.54 666.98 797.64 662.7 796.65C659.43 795.88 657.55 798.08 655.92 800.52C652.3 805.95 649.2 811.72 645.75 817.27C634.59 835.19 623.99 853.45 612.97 871.45C610.56 875.37 604.74 888.02 600.44 888.82C596.63 889.53 594.18 887.22 591.36 885.1C586.4 881.37 581.34 877.76 576.37 874.05C561.27 862.8 545.79 852.09 530.63 840.94C526.64 838.02 515.76 828.76 511.46 828.16C505.96 827.38 499.84 832.12 495.17 834.64C483.64 840.85 471.88 846.64 460.34 852.83C428.4 869.95 396.05 886.36 364.32 903.83C355.04 908.94 345.5 913.58 336.2 918.66C331.48 921.24 326.31 923.35 321.95 926.5C369.3 926.9 416.65 927.29 464 927.69C426.53 927.22 388.97 927.26 351.5 927.62C342.17 927.71 332.83 927.52 323.5 927.68C321.09 927.72 315.43 929.06 313.74 926.8C311.77 924.14 318.99 917.54 320.77 915.3C329.73 904.04 339.65 893.47 348.96 882.48C375.41 851.28 402.29 820.44 429.42 789.83C438.81 779.25 448.15 768.62 457.51 758.02C462.09 752.84 466.64 746.73 472.05 742.68C473.07 742.83 474.08 742.98 475.09 743.13C480.51 741.89 485.65 738.62 490.67 736.18C499.46 731.91 508.32 727.77 517.19 723.65C521.43 721.68 529.06 715.87 533.8 718.67C536.92 720.51 536.61 726.37 537.02 729.5C538.3 739.48 539.76 749.47 540.75 759.5C541.1 763.1 540.51 772.09 545.64 772.67C548.13 772.96 549.81 770.46 551.44 768.94C555.93 764.75 560.48 760.65 564.93 756.43C579.48 742.64 593.99 728.8 608.68 715.16C612.02 712.05 621.42 701.47 625.54 701.11C630.32 700.69 639.65 713.89 642.85 717.68C654.74 731.76 667.39 745.18 679.3 759.23C682.38 762.85 690.1 773.23 694.75 773.5C701.75 773.92 702.11 761.26 703.24 756.57C706.54 742.89 709.65 729.17 713.04 715.51C714.12 711.17 714.36 703.55 719.21 701.65C722.36 700.42 725.22 702.17 728.02 703.49C733.48 706.06 738.98 708.59 744.49 711.06C761.5 718.68 778.34 726.69 795.51 733.98C802.48 736.95 810.52 742.6 818.01 742.98ZM366.98 826.12C364.6 830.73 360.44 834.62 357 838.5C352.45 843.62 348.04 848.9 343.53 854.07C329.42 870.27 315.43 886.6 301.36 902.85C296.26 908.75 291.1 914.61 286.03 920.54C283.77 923.2 281.71 926.63 278.11 927.56C271.87 929.17 254.84 927.97 247.5 927.96C226.17 927.91 204.83 927.84 183.5 927.95C163.83 928.05 144.17 927.86 124.5 927.93C119.84 927.95 115.16 928.09 110.5 927.9C109.05 927.84 106.78 928.1 106.2 926.31C105.25 923.45 115.53 914.67 117.85 912.32C125.28 904.76 132.94 897.43 140.32 889.83C145.98 884 151.67 877.71 158 872.64C163.48 872.91 177.58 863.61 183.03 860.54C197.16 852.59 211.58 844.91 225.98 837.48C231.9 834.41 239.31 828.88 245.57 827.11C255.86 824.19 256.15 841.7 266.47 840.01C271.44 839.19 277.18 834.49 281.51 832C292.09 825.9 302.73 819.9 313.32 813.82C317.36 811.49 322.99 806.83 327.74 806.49C331.35 806.23 336.47 810.24 339.53 811.97C346.97 816.19 358.99 824.52 366.98 826.12Z" fill="#0165CA" fill-rule="evenodd" stroke="#0165CA" stroke-width="0.25" stroke-linejoin="round"/>
  <path d="M946.04 904.01C951.13 909.23 955.46 915.64 960.1 921.37C960.86 922.3 964.9 925.97 964.04 927.28C963.06 928.76 958.08 927.93 956.5 927.93C948.83 927.88 941.17 927.92 933.5 927.91C901.5 927.88 869.5 927.97 837.5 927.93C755.17 927.83 672.83 927.83 590.5 927.92C563.17 927.95 535.83 927.89 508.5 927.9C493.8 927.9 478.63 928.95 464 927.69C416.65 927.29 369.3 926.9 321.95 926.5C326.31 923.35 331.48 921.24 336.2 918.66C345.5 913.58 355.04 908.94 364.32 903.83C396.05 886.36 428.4 869.95 460.34 852.83C471.88 846.64 483.64 840.85 495.17 834.64C499.84 832.12 505.96 827.38 511.46 828.16C515.76 828.76 526.64 838.02 530.63 840.94C545.79 852.09 561.27 862.8 576.37 874.05C581.34 877.76 586.4 881.37 591.36 885.1C594.18 887.22 596.63 889.53 600.44 888.82C604.74 888.02 610.56 875.37 612.97 871.45C623.99 853.45 634.59 835.19 645.75 817.27C649.2 811.72 652.3 805.95 655.92 800.52C657.55 798.08 659.43 795.88 662.7 796.65C666.98 797.64 671.17 800.54 675.16 802.37C683.56 806.23 691.94 810.2 700.21 814.32C722.11 825.21 744.29 835.52 766.27 846.24C775.46 850.72 784.69 855.09 793.93 859.47C797.45 861.14 801.03 863.53 804.77 864.67C816.08 868.13 828.24 855.27 839.5 855.23C843.71 855.22 847.26 857.73 850.89 859.57C858.99 863.67 866.74 868.45 874.75 872.72C892.55 882.22 910.19 892 927.97 901.52C930.89 903.09 940.94 909.86 943.93 908.33C945.48 907.53 945.74 905.49 946.04 904.01Z" fill="#004A9A" fill-rule="evenodd" stroke="#004A9A" stroke-width="0.25" stroke-linejoin="round"/>
  <path d="M785.16 701.55C796.11 715.36 807.06 729.17 818.01 742.98C810.52 742.6 802.48 736.95 795.51 733.98C778.34 726.69 761.5 718.68 744.49 711.06C738.98 708.59 733.48 706.06 728.02 703.49C725.22 702.17 722.36 700.42 719.21 701.65C714.36 703.55 714.12 711.17 713.04 715.51C709.65 729.17 706.54 742.89 703.24 756.57C702.11 761.26 701.75 773.92 694.75 773.5C690.1 773.23 682.38 762.85 679.3 759.23C667.39 745.18 654.74 731.76 642.85 717.68C639.65 713.89 630.32 700.69 625.54 701.11C621.42 701.47 612.02 712.05 608.68 715.16C593.99 728.8 579.48 742.64 564.93 756.43C560.48 760.65 555.93 764.75 551.44 768.94C549.81 770.46 548.13 772.96 545.64 772.67C540.51 772.09 541.1 763.1 540.75 759.5C539.76 749.47 538.3 739.48 537.02 729.5C536.61 726.37 536.92 720.51 533.8 718.67C529.06 715.87 521.43 721.68 517.19 723.65C508.32 727.77 499.46 731.91 490.67 736.18C485.65 738.62 480.51 741.89 475.09 743.13C475.78 740.94 475.1 741.17 472.97 740.9C483.66 728.9 494.36 716.9 505.05 704.9C509.03 704.49 512.31 702.11 515.93 700.44C525.07 696.23 533.95 691.05 542.88 686.38C546.88 684.29 552.08 680.64 556.52 679.81C564.76 678.26 565.23 692.15 573.96 688.43C577.24 687.03 580.43 683.87 583.22 681.69C589.39 676.87 595.76 672.28 601.88 667.39C605.65 664.38 610.26 659.14 615.5 659.72C620.41 660.26 627.42 669.99 630.88 673.62C636.2 679.22 641.16 685.43 646.86 690.63C653.46 696.65 661.36 701.55 668.4 707.06C672.21 710.03 682.59 719.66 687.19 718.57C692.63 717.28 692.27 709.77 692.95 705.5C694.93 693.01 698.16 680.66 700.61 668.25C701.63 663.1 701.4 653.81 708.58 653.41C713.71 653.12 726.4 663.35 730.92 666.55C743.07 675.15 755.96 682.88 768.42 691.04C773.04 694.07 780.07 700.37 785.16 701.55ZM366.98 826.12C358.99 824.52 346.97 816.19 339.53 811.97C336.47 810.24 331.35 806.23 327.74 806.49C322.99 806.83 317.36 811.49 313.32 813.82C302.73 819.9 292.09 825.9 281.51 832C277.18 834.49 271.44 839.19 266.47 840.01C256.15 841.7 255.86 824.19 245.57 827.11C239.31 828.88 231.9 834.41 225.98 837.48C211.58 844.91 197.16 852.59 183.03 860.54C177.58 863.61 163.48 872.91 158 872.64C161.69 866.46 168.59 861.23 173.75 856.25C180.7 849.56 187.34 842.49 194.17 835.67C206.19 823.67 218.21 811.65 230.12 799.54C234.58 795.01 245 783.03 249.72 780.21C254.22 777.53 260.46 776.39 265.44 774.83C272.75 772.55 280.01 770.07 287.3 767.72C296.36 764.82 305.38 761.81 314.42 758.85C317.85 757.73 322.86 754.88 326.48 755.1C329.67 755.3 333.16 759.03 335.71 760.78C342.99 765.79 350.11 771.04 357.37 776.08C360.86 778.5 364.06 781.81 368.5 782.18C373.95 782.64 378.6 779.09 383.23 776.7C392.24 772.04 401.33 767.4 410.43 762.93C412.74 761.8 422.58 756.11 424.14 758.34C425.52 760.31 423.25 762.12 422.03 763.51C418.61 767.43 415.13 771.31 411.73 775.24C402.92 785.43 393.88 795.43 385.15 805.69C379.47 812.36 373.84 820.69 366.98 826.12Z" fill="#BCDEFB" fill-rule="evenodd" stroke="#BCDEFB" stroke-width="0.25" stroke-linejoin="round"/>
  <path d="M506.98 480.46C502.71 480.92 498.43 481.37 494.15 481.83C493.77 481.91 493.38 481.99 493 482.07C475.11 483.05 457.22 484.02 439.33 485C440.47 459.92 439.59 434.61 439.55 409.5C439.53 401.96 441.98 387.94 431.31 386.34C425.31 385.43 413.84 392.07 408.16 394.62C400.58 398.02 381.16 404.25 376.34 409.81C373.63 412.93 372.28 417.33 370.52 421.03C366.31 429.87 362.42 438.85 358.15 447.65C356.26 451.54 355.06 456.35 352.02 459.51C344.1 467.72 328.82 462.69 330.05 450.5C330.57 445.28 335.39 437.15 337.73 432.25C342.16 422.97 346.29 413.54 350.73 404.26C353.3 398.91 355.78 392.81 360.66 389.11C365.01 385.82 371.25 383.9 376.23 381.68C384.95 377.8 393.6 373.74 402.3 369.79C413.01 364.92 428.1 355.72 439.5 354.64C445.74 354.04 453.06 354.14 459.18 355.47C465.15 356.76 470.35 359.15 476.6 359.59C488.75 360.45 501.38 359.02 513.5 358.16C522.34 357.54 531.55 357.44 540.24 355.62C548.51 353.88 556.03 348 563.04 343.54C573.49 336.91 584.26 330.78 594.83 324.35C602 319.99 610.88 311.81 619.26 318.25C626.01 323.43 624.89 334.05 618.28 338.79C605.78 347.73 591.71 355 578.64 363.11C566.83 370.44 556.6 378.99 542.5 380.8C535.02 381.75 516.73 382.56 511.17 386.65C504.07 391.89 506.51 403.8 506.49 411.5C506.46 426.17 506.49 440.83 506.52 455.5C506.53 463.82 506.03 472.2 506.98 480.46Z" fill="#FB392B" fill-rule="evenodd" stroke="#FB392B" stroke-width="0.25" stroke-linejoin="round"/>
  <path d="M742.78 144.28C744.98 143.84 745.12 146.09 745.7 147.74C747.25 152.18 748.88 156.59 750.51 161C755.94 175.69 761.17 190.5 766.26 205.32C767.15 207.9 771.95 219.22 771.45 221.17C770.93 223.18 767.39 225.18 765.82 226.35C760.57 230.24 754.96 233.68 749.11 236.61C738.11 242.11 725.83 245.26 713.5 245.24C693.86 245.21 676.46 240.01 656.67 244.32C646.53 246.53 637.18 251.4 628.57 257.04C627.21 257.93 620.95 263.05 619.95 262.45C618.83 261.78 616.72 254.01 616.21 252.4C613.47 243.71 610.3 234.99 607.14 226.44C603.95 217.83 601.21 209.09 598.05 200.48C596.99 197.6 594.32 192.6 594.75 189.52C595.04 187.5 597.72 185.87 599.2 184.67C604.09 180.73 609.24 177.15 614.9 174.42C642.43 161.09 666.15 172.24 694.43 167.71C706.37 165.8 718.07 161.24 728.27 154.76C731.05 153 740.66 144.71 742.78 144.28Z" fill="#3BD04E" fill-rule="evenodd" stroke="#3BD04E" stroke-width="0.25" stroke-linejoin="round"/>
  <path d="M476 247.24C479 247.24 482 247.24 485 247.24C482 247.24 479 247.24 476 247.24ZM526.92 417C526.92 419.33 526.92 421.67 526.92 424C525.74 421.8 525.74 419.21 526.92 417ZM526.93 450C526.93 453 526.93 456 526.93 459C525.69 456.53 525.69 452.46 526.93 450ZM526.92 461C526.92 463 526.93 465 526.93 467C525.79 464.95 525.79 463.06 526.92 461ZM506.98 480.46C511.28 486.39 517.44 487.85 523.99 490.5C535.58 495.19 547.35 499.55 558.99 504.13C563.35 505.85 568.82 507 572.45 510.1C580.33 516.83 575.68 529.33 574.86 538C573.3 554.37 570.51 570.64 568.85 587C568.21 593.33 568.86 601.6 566.19 607.5C564.71 610.75 560.57 614.01 557.98 616.43C556.35 617.96 554.6 620.43 552.53 621.32C546.57 623.87 540.64 618.18 539.83 612.54C539.43 609.83 539.89 607.16 540.18 604.47C541.74 589.61 543.55 574.78 545.52 559.99C546.36 553.68 548.78 543.78 547.58 537.79C546.13 530.49 537.72 528.63 531.72 526.7C517.49 522.13 503.51 516.73 489.33 512.24C483.26 510.31 476.62 505.92 470 507.94C465.7 509.26 463.09 513.99 460.89 517.5C456.49 524.51 452.56 531.78 448.23 538.87C430 568.73 412.51 599.12 394.63 629.18C391.51 634.42 388.42 639.68 385.21 644.86C379.57 653.97 373.45 666.79 360.11 660.44C354.55 657.79 352.31 651.36 353.34 645.5C354.08 641.34 356.75 637.72 358.82 634.13C362.46 627.82 365.77 621.3 369.33 614.94C385.05 586.86 400.17 558.43 416.06 530.45C422.66 518.82 436.83 497.19 439.33 485C457.22 484.02 475.11 483.05 493 482.07C495.89 483.77 500.64 483.17 504 482.5C500.72 482.28 497.44 482.05 494.15 481.83C498.43 481.37 502.71 480.92 506.98 480.46ZM463 485.5C461.33 485.5 459.67 485.5 458 485.5C459.67 485.5 461.33 485.5 463 485.5Z" fill="#434041" fill-rule="evenodd" stroke="#434041" stroke-width="0.25" stroke-linejoin="round"/>
  <path d="M476.44 268.44C481.2 267.96 485.99 268.4 490.55 269.86C527.24 281.59 520.41 335.72 482.29 338.57C477.73 338.91 473.21 337.97 468.9 336.55C433.4 324.88 439.11 272.16 476.44 268.44Z" fill="#F8CC9F" fill-rule="evenodd" stroke="#F8CC9F" stroke-width="0.25" stroke-linejoin="round"/>
</svg>